<svg xmlns="http://www.w3.org/2000/svg" width="24" height="24" viewBox="0 0 24 24">
<circle cx="4.5" cy="9.8" r="2.5" fill="#FFFFFF"/>
<circle cx="8.7" cy="5.4" r="2.5" fill="#FFFFFF"/>
<circle cx="14.9" cy="5.4" r="2.5" fill="#FFFFFF"/>
<circle cx="19.5" cy="9.8" r="2.5" fill="#FFFFFF"/>
<path d="M14.8,11c-0.5-0.6-1-1.1-1.8-1.4c-0.3-0.1-1.2-0.2-1.2-0.2c-0.4,0-0.7,0.1-1.1,0.2C9.8,9.9,9.4,10.4,8.9,11
c-0.8,0.9-1.5,2-2.4,2.8c-1.3,1.4-3,2.7-2.5,4.8c0.2,1.2,1,2.1,2.2,2.4c0.7,0.2,3-0.4,5.6-0.4s5.1,0.7,5.8,0.4
c1.2-0.4,2-1.3,2.2-2.4c0.4-2.1-1.2-3.4-2.6-4.8C16.3,12.9,15.6,11.9,14.8,11z" fill="#FFFFFF"/>
</svg>
