<svg xmlns="http://www.w3.org/2000/svg" width="216" height="36" viewBox="0 0 216 36">
<path fill="#FFFFFF" d="M41.67,27.33c-4.53,0-6.93-3.54-6.93-6.73c0-3.74,3.02-6.93,7.35-6.93c4.19,0,6.79,3.28,6.79,6.73
C48.89,23.77,46.33,27.33,41.67,27.33z M45.26,24.97c0.69-0.9,0.85-2.03,0.85-3.14c0-2.49-1.19-7.23-4.71-7.23
c-0.94,0-1.87,0.37-2.56,0.96c-1.11,0.99-1.31,2.23-1.31,3.45c0,2.8,1.39,7.41,4.83,7.41C43.47,26.41,44.6,25.88,45.26,24.97z
 M80.34,8.22h-1.77l1.18-1.18h4.67l-1.02,1.02c-0.14,0.14-0.22,0.33-0.22,0.54v16.59c0,0.41,0.29,0.74,0.69,0.79l1.55,0.18L84.57,27
H79.1l1.02-1.02c0.14-0.14,0.22-0.33,0.22-0.54C80.34,25.44,80.34,8.22,80.34,8.22z M93.93,25.85c-2.52,0-4.85-1.81-5.68-5.05
l8.71-3.53c-0.47-1.68-1.79-3.6-5.23-3.6c-2.83,0-6.29,2.16-6.29,6.56c0,3.47,2.27,7.1,6.73,7.1c0.92,0,2.35-0.06,3.81-1.11
c0.55-0.39,1.02-0.84,1.41-1.35C96.42,25.36,95.39,25.85,93.93,25.85z M91.2,14.6c1.56,0,2.86,1.3,2.86,2.44
c0,0.4-0.29,0.57-0.84,0.77l-5.21,2.11C87.21,15.62,90.02,14.6,91.2,14.6z M57.27,27.33c-4.53,0-6.93-3.54-6.93-6.73
c0-3.74,3.02-6.93,7.35-6.93c4.19,0,6.79,3.28,6.79,6.73C64.49,23.77,61.92,27.33,57.27,27.33z M60.85,24.97
c0.69-0.9,0.85-2.03,0.85-3.14c0-2.49-1.19-7.23-4.71-7.23c-0.94,0-1.87,0.37-2.56,0.96c-1.11,0.99-1.31,2.23-1.31,3.45
c0,2.8,1.39,7.41,4.83,7.41C59.06,26.41,60.2,25.88,60.85,24.97z M75.82,26.13l-1.04-0.8c-0.31-0.26-0.75-0.6-0.75-1.23
c0-0.64,0.43-1.12,0.8-1.41c1.24-0.96,2.41-1.99,2.41-4.11c0-1.98-1.21-3.11-1.93-3.74h1.61l1.16-1.16h-5.81
c-4.13,0-6.22,2.56-6.22,5.41c0,2.2,1.67,4.58,4.69,4.58c0.24,0,0.81,0,0.81,0c-0.11,0.31-0.18,0.62-0.18,1.03
c0,0.89,0.39,1.34,0.82,1.83c-1.29,0.08-3.71,0.35-5.49,1.44c-1.7,1.01-2.19,2.47-2.19,3.51c0,2.13,1.99,4.13,6.15,4.13
c4.95,0,7.53-2.75,7.53-5.45C78.2,28.16,77.08,27.19,75.82,26.13z M72.09,22.8c-2.32,0-3.59-2.9-3.59-5.1
c0-2.09,1.24-3.04,2.53-3.04c2.49,0,3.78,3.27,3.78,5.24C74.81,22.33,72.86,22.8,72.09,22.8z M72.08,34.36
c-3.09,0-5.09-1.48-5.09-3.53c0-2.05,1.85-2.74,2.49-2.97c1.21-0.41,2.77-0.44,3.04-0.44c0.29,0,0.43,0,0.66,0.02
c2.2,1.57,3.15,2.32,3.15,3.8C76.32,32.88,74.84,34.36,72.08,34.36z M32.37,26.4c-1.35,0.37-4.49,1.28-8.62,1.28
c-5.9,0-11.08-3.76-11.08-10.73c0-4.85,4.01-10.35,11.53-10.35c1.56,0,3.07,0.17,4.35,0.55c1.99,0.59,3.1,1.31,3.74,1.74l-2.76,2.75
V9.99c-1.1-0.92-2.51-2.28-5.97-2.28c-4.48,0-7.77,3.47-7.77,8.43c0,5.44,4,10.28,9.5,10.28c2.04,0,3.4-0.29,4.24-0.56v-5h-3.66
l1.18-1.18h6.56l-1.02,1.02c-0.14,0.14-0.22,0.33-0.22,0.54V26.4z M104.06,27V9.07h4.99c1.12,0,2.14,0.19,3.08,0.58
s1.75,0.93,2.42,1.64c0.67,0.71,1.2,1.57,1.58,2.57c0.38,1.01,0.57,2.12,0.57,3.36v1.64c0,1.23-0.19,2.35-0.57,3.36
c-0.38,1.01-0.91,1.86-1.59,2.57c-0.68,0.71-1.5,1.25-2.45,1.64s-2,0.58-3.15,0.58L104.06,27L104.06,27L104.06,27z M105.54,10.33
v15.43h3.4c0.97,0,1.84-0.17,2.62-0.5c0.78-0.34,1.44-0.81,1.99-1.41c0.55-0.6,0.96-1.33,1.26-2.17c0.29-0.85,0.44-1.78,0.44-2.81
v-1.67c0-1.04-0.15-1.98-0.44-2.83c-0.29-0.84-0.71-1.56-1.26-2.16s-1.19-1.06-1.95-1.39c-0.76-0.32-1.61-0.49-2.54-0.49
C109.04,10.33,105.54,10.33,105.54,10.33z M124.6,27.25c-0.87,0-1.67-0.16-2.4-0.49c-0.73-0.32-1.36-0.78-1.89-1.35
c-0.53-0.58-0.94-1.27-1.24-2.06s-0.44-1.67-0.44-2.62v-0.53c0-1.03,0.15-1.96,0.46-2.79s0.72-1.54,1.25-2.13
c0.53-0.59,1.13-1.04,1.82-1.36c0.69-0.32,1.41-0.48,2.17-0.48c0.85,0,1.6,0.15,2.25,0.45c0.66,0.3,1.21,0.73,1.66,1.27
c0.45,0.54,0.79,1.19,1.02,1.93s0.35,1.56,0.35,2.45v0.9h-9.51v0.28c0,0.73,0.11,1.42,0.33,2.06c0.22,0.65,0.53,1.21,0.94,1.69
c0.4,0.48,0.88,0.86,1.44,1.13s1.18,0.41,1.86,0.41c0.79,0,1.48-0.15,2.09-0.44c0.6-0.29,1.15-0.75,1.64-1.39l0.92,0.7
c-0.22,0.32-0.48,0.62-0.77,0.91c-0.29,0.29-0.63,0.54-1.02,0.75s-0.82,0.38-1.31,0.5C125.74,27.18,125.2,27.25,124.6,27.25z
 M124.33,14.69c-0.56,0-1.07,0.11-1.55,0.32c-0.48,0.21-0.9,0.52-1.26,0.91c-0.36,0.39-0.67,0.87-0.9,1.42
c-0.23,0.56-0.39,1.17-0.47,1.84h7.99v-0.16c-0.02-0.56-0.11-1.1-0.27-1.62c-0.17-0.52-0.4-0.98-0.72-1.39s-0.71-0.73-1.18-0.97
C125.5,14.81,124.96,14.69,124.33,14.69z M135.22,23.6l0.47,1.69l0.49-1.69l3.56-9.93h1.51L136.28,27h-1.18l-5-13.32h1.51
L135.22,23.6z M147.93,27.25c-0.87,0-1.67-0.16-2.4-0.49c-0.73-0.32-1.36-0.78-1.89-1.35c-0.53-0.58-0.94-1.27-1.24-2.06
s-0.44-1.67-0.44-2.62v-0.53c0-1.03,0.15-1.96,0.46-2.79s0.73-1.54,1.25-2.13s1.13-1.04,1.82-1.36c0.69-0.32,1.41-0.48,2.17-0.48
c0.85,0,1.6,0.15,2.25,0.45c0.66,0.3,1.21,0.73,1.66,1.27c0.45,0.54,0.79,1.19,1.02,1.93s0.35,1.56,0.35,2.45v0.9h-9.51v0.28
c0,0.73,0.11,1.42,0.33,2.06c0.22,0.65,0.53,1.21,0.94,1.69c0.4,0.48,0.88,0.86,1.44,1.13s1.18,0.41,1.86,0.41
c0.79,0,1.48-0.15,2.09-0.44c0.6-0.29,1.15-0.75,1.64-1.39l0.92,0.7c-0.22,0.32-0.48,0.62-0.77,0.91c-0.29,0.29-0.63,0.54-1.02,0.75
s-0.82,0.38-1.3,0.5C149.07,27.18,148.52,27.25,147.93,27.25z M147.65,14.69c-0.56,0-1.07,0.11-1.55,0.32
c-0.48,0.21-0.9,0.52-1.26,0.91c-0.36,0.39-0.66,0.87-0.9,1.42c-0.23,0.56-0.39,1.17-0.47,1.84h7.99v-0.16
c-0.02-0.56-0.11-1.1-0.27-1.62c-0.16-0.52-0.4-0.98-0.72-1.39s-0.71-0.73-1.18-0.97C148.82,14.81,148.28,14.69,147.65,14.69z
 M156.69,27h-1.48V8.09h1.48V27z M159.12,20.14c0-0.97,0.14-1.86,0.43-2.68c0.28-0.82,0.68-1.53,1.2-2.12
c0.52-0.6,1.14-1.06,1.87-1.4s1.54-0.51,2.44-0.51c0.91,0,1.73,0.17,2.47,0.51s1.36,0.8,1.88,1.4c0.52,0.6,0.91,1.3,1.19,2.12
c0.28,0.82,0.42,1.72,0.42,2.68v0.41c0,0.97-0.14,1.86-0.42,2.68c-0.28,0.82-0.68,1.53-1.19,2.12c-0.52,0.6-1.14,1.06-1.87,1.39
c-0.73,0.33-1.55,0.5-2.45,0.5s-1.72-0.17-2.45-0.5c-0.73-0.33-1.36-0.8-1.88-1.39c-0.52-0.6-0.92-1.3-1.21-2.12
c-0.28-0.82-0.43-1.72-0.43-2.68V20.14L159.12,20.14z M160.6,20.55c0,0.73,0.1,1.43,0.29,2.09c0.2,0.66,0.48,1.24,0.86,1.74
c0.38,0.5,0.85,0.89,1.4,1.19c0.56,0.3,1.2,0.44,1.92,0.44s1.36-0.15,1.91-0.44s1.02-0.69,1.4-1.19c0.38-0.5,0.66-1.08,0.86-1.74
s0.29-1.36,0.29-2.09v-0.41c0-0.71-0.1-1.4-0.29-2.06c-0.2-0.66-0.48-1.24-0.86-1.74c-0.38-0.5-0.85-0.9-1.41-1.2
c-0.56-0.3-1.2-0.45-1.93-0.45c-0.71,0-1.35,0.15-1.9,0.45c-0.55,0.3-1.02,0.7-1.4,1.2c-0.38,0.5-0.66,1.08-0.86,1.74
c-0.2,0.66-0.29,1.35-0.29,2.06V20.55L160.6,20.55z M184.01,20.47c0,1-0.11,1.92-0.34,2.75c-0.23,0.83-0.56,1.54-0.99,2.14
c-0.44,0.6-0.97,1.06-1.6,1.39c-0.63,0.33-1.34,0.5-2.15,0.5c-0.95,0-1.77-0.17-2.47-0.51s-1.27-0.81-1.72-1.41v6.8h-1.46V13.68
h1.37l0.07,1.88c0.45-0.66,1.02-1.19,1.71-1.56c0.69-0.38,1.51-0.57,2.46-0.57c0.81,0,1.54,0.16,2.17,0.48
c0.64,0.32,1.17,0.78,1.61,1.37c0.44,0.59,0.77,1.3,0.99,2.14c0.23,0.83,0.34,1.77,0.34,2.8L184.01,20.47L184.01,20.47z
 M182.54,20.21c0-0.77-0.08-1.49-0.24-2.17s-0.4-1.26-0.73-1.75c-0.32-0.49-0.74-0.88-1.24-1.16c-0.5-0.28-1.09-0.42-1.76-0.42
c-0.53,0-1.01,0.07-1.42,0.21c-0.41,0.14-0.77,0.33-1.08,0.56c-0.31,0.23-0.57,0.5-0.79,0.81c-0.22,0.31-0.4,0.63-0.54,0.97v6.39
c0.16,0.34,0.35,0.65,0.59,0.94c0.23,0.29,0.51,0.54,0.82,0.75c0.32,0.21,0.68,0.37,1.08,0.49c0.4,0.12,0.85,0.18,1.35,0.18
c0.67,0,1.26-0.14,1.75-0.42c0.49-0.28,0.9-0.67,1.23-1.17c0.32-0.5,0.57-1.08,0.73-1.75c0.16-0.67,0.24-1.4,0.24-2.18V20.21z
 M191.68,27.25c-0.87,0-1.67-0.16-2.4-0.49c-0.73-0.32-1.36-0.78-1.89-1.35c-0.53-0.58-0.94-1.27-1.24-2.06
c-0.29-0.8-0.44-1.67-0.44-2.62v-0.53c0-1.03,0.15-1.96,0.46-2.79c0.31-0.83,0.73-1.54,1.25-2.13c0.53-0.59,1.13-1.04,1.82-1.36
c0.68-0.32,1.41-0.48,2.17-0.48c0.85,0,1.6,0.15,2.25,0.45c0.66,0.3,1.21,0.73,1.66,1.27c0.45,0.54,0.79,1.19,1.02,1.93
s0.34,1.56,0.34,2.45v0.9h-9.51v0.28c0,0.73,0.11,1.42,0.33,2.06c0.22,0.65,0.53,1.21,0.94,1.69s0.88,0.86,1.44,1.13
c0.56,0.27,1.18,0.41,1.86,0.41c0.79,0,1.48-0.15,2.09-0.44s1.15-0.75,1.64-1.39l0.92,0.7c-0.22,0.32-0.48,0.62-0.77,0.91
c-0.29,0.29-0.63,0.54-1.02,0.75c-0.38,0.21-0.82,0.38-1.3,0.5C192.82,27.18,192.28,27.25,191.68,27.25z M191.41,14.69
c-0.56,0-1.07,0.11-1.55,0.32c-0.48,0.21-0.9,0.52-1.26,0.91c-0.37,0.39-0.66,0.87-0.9,1.42c-0.23,0.56-0.39,1.17-0.47,1.84h7.99
v-0.16c-0.02-0.56-0.11-1.1-0.27-1.62s-0.4-0.98-0.72-1.39c-0.32-0.4-0.71-0.73-1.18-0.97C192.58,14.81,192.03,14.69,191.41,14.69z
 M204.95,14.93c-0.31-0.06-0.65-0.09-1-0.09c-0.5,0-0.95,0.07-1.35,0.22c-0.4,0.15-0.76,0.36-1.07,0.62
c-0.31,0.27-0.57,0.58-0.78,0.95s-0.38,0.77-0.5,1.21V27h-1.47V13.68h1.44l0.02,2.12c0.36-0.73,0.85-1.31,1.47-1.73
c0.62-0.42,1.38-0.63,2.29-0.63c0.18,0,0.37,0.02,0.55,0.05c0.19,0.03,0.33,0.07,0.42,0.11L204.95,14.93z M214.52,23.61
c0-0.28-0.05-0.55-0.15-0.81s-0.28-0.51-0.54-0.76c-0.26-0.24-0.62-0.47-1.08-0.67c-0.46-0.2-1.04-0.39-1.77-0.54
c-0.76-0.16-1.42-0.35-2-0.56c-0.58-0.21-1.07-0.46-1.46-0.76c-0.4-0.3-0.7-0.64-0.9-1.04c-0.21-0.4-0.31-0.87-0.31-1.41
c0-0.49,0.11-0.96,0.33-1.4c0.22-0.44,0.53-0.83,0.94-1.16c0.41-0.33,0.9-0.59,1.48-0.78c0.58-0.19,1.23-0.29,1.95-0.29
c0.77,0,1.46,0.1,2.07,0.3c0.61,0.2,1.13,0.48,1.55,0.84c0.42,0.36,0.74,0.78,0.97,1.26c0.22,0.49,0.33,1.01,0.33,1.58h-1.48
c0-0.34-0.08-0.68-0.23-1.01c-0.15-0.33-0.37-0.62-0.66-0.87c-0.29-0.25-0.65-0.45-1.08-0.61c-0.43-0.16-0.92-0.23-1.47-0.23
c-0.57,0-1.07,0.07-1.47,0.21c-0.41,0.14-0.74,0.32-1,0.54c-0.26,0.22-0.45,0.47-0.57,0.75c-0.12,0.27-0.18,0.55-0.18,0.83
c0,0.27,0.04,0.53,0.12,0.77s0.25,0.47,0.5,0.68c0.25,0.21,0.6,0.41,1.06,0.6c0.46,0.19,1.06,0.36,1.8,0.53
c0.75,0.16,1.41,0.36,2,0.58c0.59,0.23,1.08,0.5,1.49,0.81c0.41,0.31,0.72,0.68,0.93,1.1c0.21,0.42,0.32,0.9,0.32,1.45
s-0.12,1.05-0.35,1.51c-0.23,0.45-0.57,0.85-0.99,1.17c-0.43,0.32-0.94,0.58-1.55,0.76s-1.28,0.27-2.02,0.27
c-0.85,0-1.59-0.11-2.24-0.33c-0.65-0.22-1.19-0.51-1.64-0.88s-0.78-0.79-1-1.27c-0.23-0.48-0.34-0.98-0.34-1.5h1.48
c0.03,0.53,0.17,0.96,0.4,1.31c0.23,0.35,0.53,0.63,0.89,0.84s0.75,0.36,1.18,0.45c0.43,0.09,0.86,0.14,1.27,0.14
c0.56,0,1.05-0.07,1.48-0.2c0.43-0.13,0.79-0.31,1.08-0.53c0.29-0.22,0.51-0.48,0.66-0.76C214.45,24.23,214.52,23.92,214.52,23.61z"/>
</svg>